<?xml version="1.0" standalone="no"?>
<!DOCTYPE svg PUBLIC "-//W3C//DTD SVG 20010904//EN"
 "http://www.w3.org/TR/2001/REC-SVG-20010904/DTD/svg10.dtd">
<svg version="1.0" xmlns="http://www.w3.org/2000/svg"
 width="260.000000pt" height="260.000000pt" viewBox="0 0 260.000000 260.000000"
 preserveAspectRatio="xMidYMid meet">
<metadata>
Created by potrace 1.11, written by Peter Selinger 2001-2013
</metadata>
<g transform="translate(0.000000,260.000000) scale(0.100000,-0.100000)"
fill="#000000" stroke="none">
<path d="M1200 2544 c-30 -11 -108 -47 -173 -78 -65 -31 -120 -56 -122 -56 -2
0 -74 -34 -160 -75 -85 -41 -157 -75 -159 -75 -4 0 -245 -113 -321 -151 -118
-59 -182 -145 -189 -253 -2 -18 -5 -36 -8 -42 -10 -17 -7 -1177 3 -1211 17
-56 70 -91 254 -173 22 -9 63 -28 90 -40 28 -12 88 -39 135 -60 47 -21 112
-50 145 -65 118 -53 232 -104 341 -153 94 -42 163 -64 209 -67 6 0 15 -3 20
-7 6 -4 22 -5 35 -3 14 2 43 6 65 10 58 8 99 22 205 70 162 73 215 97 549 246
197 88 338 156 361 176 25 22 41 46 48 75 8 30 11 227 9 653 l-3 610 -23 59
c-43 108 -78 134 -361 264 -36 17 -220 102 -409 191 -188 88 -355 163 -370
165 -14 2 -28 5 -31 7 -21 10 -95 1 -140 -17z m175 -220 c30 -27 33 -74 8 -96
-68 -59 -212 -55 -263 7 -28 34 -15 81 30 105 63 34 181 25 225 -16z m238
-108 c39 -7 86 -43 93 -72 14 -55 -79 -108 -174 -98 -161 16 -166 149 -7 174
22 3 45 5 50 3 6 -1 22 -5 38 -7z m-736 -83 c40 -21 59 -62 44 -92 -31 -57
-152 -79 -234 -43 -59 26 -77 69 -44 107 46 54 161 67 234 28z m1075 -66 c74
-31 77 -101 5 -136 -99 -48 -247 -8 -247 66 0 72 141 113 242 70z m-773 -75
c40 -21 62 -63 45 -90 -33 -52 -115 -76 -199 -58 -11 3 -23 5 -27 5 -19 2 -68
56 -68 75 0 78 150 119 249 68z m-929 -9 c14 -6 66 -30 115 -53 50 -23 115
-53 145 -67 30 -14 89 -41 130 -60 41 -19 207 -96 368 -170 l294 -135 71 33
c40 18 108 49 152 69 44 20 139 63 210 95 72 32 157 70 190 85 33 15 80 37
105 48 189 85 254 114 314 141 74 35 109 34 104 -2 -3 -22 -15 -28 -464 -231
-116 -52 -240 -108 -275 -124 -35 -16 -113 -51 -174 -78 -60 -27 -130 -59
-155 -70 l-45 -22 -2 -653 c-1 -360 -2 -664 -2 -675 -1 -24 -23 -37 -46 -28
-13 5 -15 90 -15 681 l0 674 -82 38 c-207 96 -323 149 -423 196 -44 20 -156
72 -250 115 -318 146 -345 159 -345 173 0 33 32 41 80 20z m1238 -128 c98 -58
18 -159 -120 -150 -137 8 -183 105 -75 156 51 24 149 21 195 -6z m-1041 -286
c76 -28 105 -124 59 -193 -46 -71 -151 -64 -194 13 -36 64 -22 139 32 172 35
21 62 24 103 8z m615 -220 c61 -44 76 -133 31 -187 -70 -83 -194 -40 -208 72
-13 104 94 174 177 115z m635 -74 c66 -76 20 -198 -75 -198 -105 0 -158 129
-85 205 42 44 118 41 160 -7z m-984 -172 c39 -29 55 -66 52 -118 -8 -125 -164
-152 -220 -38 -56 116 68 232 168 156z m1285 -36 c28 -29 41 -81 30 -123 -21
-80 -120 -106 -180 -47 -42 43 -50 115 -17 157 46 58 116 64 167 13z m-1583
-203 c28 -18 55 -72 55 -109 0 -62 -58 -125 -115 -125 -56 0 -125 74 -125 134
0 50 42 109 85 119 30 7 73 -2 100 -19z m1858 14 c99 -53 86 -204 -20 -224
-92 -17 -163 75 -127 165 24 60 93 88 147 59z m-1275 -258 c60 -37 79 -125 39
-183 -54 -80 -168 -63 -203 30 -44 116 62 215 164 153z"/>
</g>
</svg>
